<svg xmlns="http://www.w3.org/2000/svg" xmlns:xlink="http://www.w3.org/1999/xlink" id="Layer_1" viewBox="0 0 728.5 1031.81"><defs><style>.cls-1{clip-path:url(#clippath);}.cls-2{opacity:.07;}.cls-3{fill:#a5956c;}.cls-4{fill:#5a6d43;}.cls-5{fill:#5c4c2c;}.cls-6{fill:#2e3429;}</style><clipPath id="clippath"><rect class="cls-4" x=".44" y="-.18" width="1548.27" height="1032.18"></rect></clipPath></defs><g class="cls-2"><rect class="cls-4" x=".44" y="-.18" width="1548.27" height="1032.18"></rect><g class="cls-1"><g><path class="cls-3" d="M950.93,1186.73c14.52-38.29-9.04-97.55-56.18-82.81-11.8,31.21-32.99,7.1-55.78,26.48-13.49-14.02-1.3-26.89,6.51-38.98-12.1-54.19,15.07-32.65,36.71-68.82,14.65-24.49,3.5-59.68-7.92-87.59-12.98-31.7-30.3-84.15-62.29-100.62-15.99-8.24-33.34-1.77-50.3-5.93-22.41-5.49-25.77-26.53-48.7-16.26-1.32,.59-35.56,40.71-36.33,42.4-8.28,18.37-5.75,9.9-5.22,31.02,.35,13.96,7.65,57.44,11.55,70.81,14.03,48.11,3.83,10.87,28.46,35.4,40.26,40.09,49.12,36.64,42.18,88.08-2.79,20.66-4.77,29.48,2.85,47.76,13.33,8.11,22.68,19.27,28.05,33.47-.03,8.87,1.66,17.4,5.06,25.59h3.1c8.19-6.23,47.25,0,52.75,0,9.09-6.76,11.47-6.76,18.62,0h86.88Z"></path><path class="cls-3" d="M556.86,1186.73c23.7-25.08,5.5-66.99,46.65-75.25,10.15-2.04,36.32,12.5,40.55,.3,9.35-26.99-33.54-10.58-37.48-11.82-7.15-8.77,5.9-35.43-.47-50.9-8.37-20.34-27.97-32.83-46.61-38.87-22.43-7.26-97.6-20.97-83.31,27.72,7.99,.59,14.33,4.1,19.03,10.54,43.95-3.67-3.29,32.14-11.21,41.34-29.38,34.14-33.96,35.63-71.5,11.17-11.5-7.49-15.27,3.49-26.55-10.13-6.62-7.99-9.17-32.01-11.98-41.76-8.2-28.51-4.86-51.92-46.86-55.42-37.78-3.14-26.89,14.49-53.79,31.5-9.66,6.11-26.5-10.41-35.13-1.29-5.7,6.02,1.38,37.67,.32,42.98-1.51,7.53-17.8,33.33-16.32,38.87,3.98,14.94,13.91,4.28,20.73,13.93,14.51,20.51,46.72,42.45,53.31,67.07h49.65c7.59-8.27,64.41-20.66,68.26,0h46.54c5.99-8.98,43.24-9.68,55.44-15.26,8.25,3.34,27.55,8.2,34.55,15.26h6.21Z"></path><path class="cls-3" d="M537.12,827.33c1.67-24.3-15.91-57.93-32.57-71.59-13.54,6.55-31.01,6.72-42.14,11.82,2.62-1.2-36.39,20.28-29.62,19.07-30.67,5.47-34.52-17.36-48.02-49.22-10.89-25.7-9.51-36.61-14.79-66.37-1.51-8.51-35.2-88.78-.06-60.32,14.67-2.81,32.45-48.94,45.52-29.49,15.45,22.97-21.12,38.83,12.16,68.16,41.47,36.55,67.04-4.89,64.29-43.76-.4-5.71-3.99-35.34-6.38-42.78-3.77-11.73-18.33-9-21.94-18.41-6.52-17.01,.29-27.96-.82-43.15-2.71-36.74,.94-30.57-32.6-31.73-9.08-.31-47.54,16.64-32.37-13.99-14.61-36.77-48.51-47.47-65.83-84.31,35.37-36.98,8.98-19.91,7.8-59.39-.61-20.51,23.89-50.13,28.38-69.8,10.42-45.59-3.15-149.57-69.99-105.78-14.75,9.67-35.27,43.18-38.25,63.02-6.42,42.8,27.05,56.42,36.76,91.68,4.42,16.06-6.88,25.88-2.97,40.91,1.42,5.45,14.01,20.44,14,20.13,.3,14.7-18.77,56.67-4.01,61.95,3.66-2.27,7.9-4.9,13.05-8.09,23.63,38.96-28.19,96.72,35.77,114.24,5.16-5.39,10.81-6.23,16.93-2.52,4.1,7.56-19.74,19.42-22.24,23.44-5.98-2.2-11.71-1.92-17.2,.84-2.98,5.55-2.7,11.16,.83,16.82-3.15,2.87-22.21,42.02-31.64,16.63-7.91-21.3,24.44-29.33,20.05-40.81-1.27-3.32-21.74-7.74-24.86-9.72-13.04,36.35-23.49,16.46-42.68,9-5.7-2.22-12.58-9.4-20.45-12.38-16.78-6.35-34.35-2.28-53.31-12.27,4.35-35.23-5.61-13.1-23.39-44.03-13.77-23.95,.74-53.87-3.84-78.28-4.06-21.61-24.31-56.45-47.67-59.63-16.69-2.27-26.98,24.84-42.92,13.9-10.36-7.11-11.42-37.6-9.01-49.44,14.94-73.53,112.56-52.02,113.66-127.84,.79-54.43-44.7-107.18-87.1-131.5-15.04-8.63-4.48-14.77-23.53-14.32-5.6,.13-29.49,19.31-34.47,23.78C-.08,59.53-12.13,69.59-11.08,106.36c.96,33.73,13,45.18-7.8,76.32,.73,5.95,.62,11.91-.33,17.87-5.2,2.16-10.51,2.88-15.93,2.18-3.35,3.16-23.48,14.12-30.01,18.6-27.48,18.87-44.69,30.21-37.77,66.87,1.98,10.5,13.18,18.47,13.97,23.15,1.78,10.48-.47,25.21,1.13,37.08,5.46,40.4,21.16,55.74,58.96,76.36,40.77,22.24,59.93,22.09,66.17-27.57,33.67-7.12,45.91,47.42,69.45,68.31,5.25,4.66,13.07-3.96,17.79,.79,10.17,10.22,3.28,14.72,8.9,25.56,12.82,24.71,13.8,36.75-1.14,60.62-16.29-3.95-24.01-1.04-41.38,3.63-4.89-6.2-9.57-12.14-14.87-18.87,11.21-6.93,29.64,6.55,26.52-17.2-3.09-23.52-20.41-3.19-26.21-4.45,16.43,3.55-39,6.77-33.12,2.97-7.93,4.1-2.23,12.95-10.89,15.21-9.83,2.57-45.43,14.63-53.38,13.45-21.25-3.15-14.67-16.6-29.83-23.67-22.61-10.55-61.51-29.28-78.24-7.58-18.49-13.17-16.92-2.68-22.2-2.76,1.73,.02-1.9,18.4-10.04,16.76-8.79-1.76-12.44-16.46-19.36-20.53-8.55-5.03-25.01-15.83-38.33-26.48v95.35c2.87,.47,6.33,.54,10.73,.1,11.76-1.17,17.07-27.66,32.99-22.76,21.98,6.76,3.08,31.97,8.4,44.01,10.61,23.99,16.71,16.93,30.44,31.29,26.85,28.1,66.96,69.01,109.68,74.45,1.69,.22,24.13-12.26,29.27-12.94,12.27-1.61,37.52,.15,52.32,.15,11.11-17.42,21.26-34.26,6.98-53.7-25.05-34.11-11.21,8.48-36.49,7.27-24.2-1.16-31.34-18.45-19.89-40.16,1-1.9,24.24-5.97,29.12-9.82,.54-.43,26.67-37.32,28.63-41.47,7.82,2.12,15.12,4.1,22.44,6.08,12.41,18.78-12.94,39.65-11.18,56.14,3.63,34,33.15,32.54,55.92,14.47,19.94-15.83,12.26-38.04,28.11-52.62,28.96-26.63,26.35-4.52,30.72-.76-2.38-2.05,3.02,28.23,5.9,32.14,10.6,14.39,25.11,15.53,39.66,14.39,51.67-4.03,28.18-27.02,41.94,1.15,5.08,10.4,14.02,64.18,14.45,76.38,.74,21,1.67,7.18-5.86,27.56-5.35,14.49-29.55,12.69-26.64,36.7-8.51,21.76,54.38,42.41,67.99,52.17,35.49,25.48,28.93,62.03,60.54,23.04,18.79,13.26,67.94,64.52,59.53,86.49-.96,2.51-30.45,14.39-36.4,22.93,.13-.19-26.56,65.62-31.93,57.39,9.86,15.11,82.04-46.01,91.99-56.4,24.2,1.51-19.29,42.44-4.28,50.03-1.24-.63,36.86-52.28,39.53-56.62,7.31-11.89,12.91-6.34,16.09-22.92,2.68-13.96-13.21-27.07-9.48-44.32,4.2-19.43,23.38-28.33,24.93-50.86ZM152.33,172.73c4.19,.87,4.52,3,.99,6.41-1.68-.81-2.53-1.21-3.37-1.61,.79-1.6,1.58-3.19,2.38-4.79ZM22.23,250.09c-9.82-1.34-24.8-49.47-10.46-48.89,22.4,.9,22.27,50.5,10.46,48.89Zm136.58,302.41c-9.21-5.71,5.92-13.58,6.04-9.43-2.01,3.14-4.03,6.29-6.04,9.43Zm277.17,262.89c-9.67,.94-4.16-12.12,2.03-12.83,2.84,3.19,6.11,12.04-2.03,12.83Z"></path><path class="cls-3" d="M1062.8,537.04c9.87,21.04-30.06,70.12-43.64,83.95-8.05,8.2-21.82,13.11-29.58,21.93-9.94,11.3-6.21,36.84-22.15,41.93-30.12,9.62-11.85-24.59-22.2-26.14-24.16-3.61-3.32-.33-16.73,6.51,4.16-2.12-16.62,25.44-15.15,23.86-8.29,8.91-24.44,12.82-31.71,20.08-4.36,4.36-35.5,40.35-33.98,50.75,6.01,41,55.53,55.44,81.06,52.68,5-.54,11.7-23.1,26.5-20.54,24.96,4.32,14.89,27.79,19.7,42.29,3.3,9.95,21.58,43.75,30.33,46.34,3.71-10.37,10.18-13.82,19.43-10.34,.89,8.95-3.42,13.88-12.92,14.79-9.63,13.39,13.61,24.91,25.38,11.18,3.18-.26,6.71-.54,9.79-.79,28.62-24.56,30.05-79.97,77.07-59.46,3.66-1.38,7.9-2.99,12.4-4.7,19.3,8.54,16.99,22.7,41.84,18.96,15.22-2.29,44.95-27.36,46.03-44.34,3.12-48.92-76.04-57.37-86.36-9.75-4.68-1.42-8.44-2.56-12.28-3.72-8.12,4.09-16.14,8.38-24.06,12.86-2,3.95-3.82,7.54-5.83,11.5-19.54,1.14-22.63-18.67-38.57-24.33-23.59-8.39-22.77,22.93-50.78-14.25-30.65-40.67-38.18-84.13,7.49-107.03,20.32,11.91,18.44,8.73,28.73-6.55,25.49-5.92,9.73-35.76,25.43-49.55-14.54,12.78,40.16-12.27,36.66-11.11,17.38-5.8,32.95-14.12,49.8-12.14,13.41,1.57,5.12,14.45,22.28,15.02,14.73,.49,19.88-17.99,27.93-17.39,23.04,1.73,27.48,30.68,54.06,11.82,4.01,1.97,8.04,3.96,11.61,5.72,.28-.08,64.78-32.68,40.38-39.13-22.55-5.96-.04,36.4-37.2,2.92,.84-5.98,27.16-28.88,21.97-35.75-12.58-16.64-26.72,18.29-31.34,24.58-2.52,1.17-21.25-7.01-25.2-7.53-17.48-2.3-43.42,16.76-45.29,16.57-30.96-3.21-57.16-67.21-70.61-93.62-15.77-30.96-24.75-62.15-37.48-98.1-8.44-23.84-50.18-71.77-80.66-48.06-7.25,.48-61.91,11.45-55.95-14.87,6.06-26.74,53.87,6.43,54.6-37.04,.02-.95-26.25-31.85-29.37-39.74-7.34-18.56-17.01-29.17-2.08-50.12,8.02-11.26,60.4-11.09,51.82-35.15-20.2-8.91-77.34-22.13-50.81,18.86,.07,15.71-53.29,35.29-60.94,39.9-6.14,3.7-47.26,26.04-48.75,32.39-5.79,24.73,.96,5.97,15.76,30.21-2.53,30.46,29.78,30.99,43.66,57.66,15.72,30.19,5.04,84.77-38.47,66.87-32.69,18.79-20.25-7.3-23.86-9.64,3.6,2.34-2.85-34.94-13.51-1.86-30.45,13.03-50.92,5.14-77.32,16.66-8.58,3.75-58.24,34.02-61.21,41.45-30.44,0-6.92,20.2,4.46,32.42,8.07,8.66,23.63,7.17,31.44,16.03,8.99,10.2-.5,31.09,19.16,39.22,35.85,14.82,22.27-36.44,51.69-28.95,11.88,3.02,21.2,24.8,18.88,35.7-4.26,20-27.02-11.26-28.82-.1-1.8,11.15,27.04,17.55,28.4,35.69,16.68,15.24,31.09,20.41,52.76,11.99,17.25-6.7,9.92-17.45,20.15-23.72,20.75-12.73,61.06-20.76,76.94-38.15,15.3-16.76,7.49-43.32,36.26-43.73,24.96-.36,53.39,34.56,42.96,56.08Zm112.81,293.37c-6.22-3.95-11.95-8.48-17.2-13.59-9.76-10.81,29.97-9.39,37.48,1.95-8.55,.71-15.31,4.59-20.28,11.64Z"></path><path class="cls-3" d="M96.63,977.51c11.03,18,21.39,5.37,29.17,10.88,18.82,13.33,23.25,23.72,45.97,33.91,8.83,3.96,24.35,13.66,34.6,11.33,42.77-9.7,20.89-50.04,13.75-68.48-2.67-6.89-11.63-7.45-14.09-15.77-3.3-11.15,7.37-24.03,4.21-34.82-5.53-18.87-11.39-17.45-25.78-33.98-28.08-32.24-50.49-61.01-100.97-54.31-.22,8.88-4.14,14.9-11.78,18.03-21.21-.78,44.16-71.92,.44-84.86-5.29-11.65,17.51-23.89-9.11-25.86-4.17,12.47-29.28,33.49-40.27,40.33-9.87,6.15-33.17,11.23-39.78,16.4-28.05,21.92,1.11,14.85-15.17,41.01-8.8,14.14-20,16.45-24.84,31.89,.81-2.59,6.06,52.72,3.96,48.45,6.51,13.24,16.64,20.96,30.16,28.56,31.24,17.56,87.55,47.11,119.53,37.28ZM-7.53,859.46c15.08-1.27-5.09,28.59-9.7,14.12-1.26-7.76,1.97-12.47,9.7-14.12Z"></path><path class="cls-3" d="M617.82,458.95c11.68-19.17-3.1-27.91-12.72-9.4-5.35,10.3,4.73,30.75,.65,40.26-16.43,38.27-13.08-4.52-37.76,11.09-23.56,14.91-13.14,32.7-16.78,53.56-7.13,40.87-19.47,50.97,32.95,47.86,25.69-1.52,38.02-15.33,65.07,3.39-6.75-4.67,32.27,42.54,27.51,30.13,15.1,39.4-44.09,96.11,24.82,83.49,17.74-3.25,38.17-10.77,40.52-30.1,3.39-27.87-26.55-31.11-39.87-44.78-13.14-13.48-39.06-45.04-44.55-62.45-8.56-27.13,8.99-35.37-17.99-49.05-10.58-5.36-19.29,19.45-30.04,6.02-13.99-17.48,21.48-36.06,30.33-47.7-4.46-11.96-14.43-20.64-22.15-32.32Z"></path><path class="cls-3" d="M688.18,145.77c-4.81-2.76-8.74-5.02-12.94-7.43-16.1,8.33-21.92,60.16-19.37,72.4,.08,.39,26.46,37.95,31.32,39.96,9.54,3.95,48.52-23.5,54.07-26.39,34.68-18.06,110.64-31.09,58.69-79.08-32.03-29.59-78.58-19.75-111.76,.54Z"></path><path class="cls-3" d="M566.41,339.13c20.97,18.35,5.06,56.46,17.89,73.51,17.54,23.3,12.11-2.74,23.37,1.28-3.6-1.28,30.2,13.52,23.7,13.61,98.58-1.4,7.48-108.8-20.71-144.12-26.3,19.96-44.26,14.52-44.26,55.72Z"></path><path class="cls-3" d="M378.89,22.15c2.53-4.43,4.9-8.94,7.12-13.53-19.69-19.68-58.78,5.81-53.17,33.89,3.26,16.32,58.16,32.88,74.15,38.91,23.89,9.01,45.16,14.07,65.31,28.36,8.33,5.9,37.49,52.82,47.36,51.01,4.94-7.96,4.57-16.49-1.1-25.6,1.78-2.86,4.16-6.7,7.02-11.3-19.02-23.06-29.28-66.55-59.36-75.25-17.46-5.05-31.89,1.99-50.83-4.67-11.39-4.01-22.69-17.08-36.51-21.81Z"></path><path class="cls-3" d="M525.83,174.59c-10.54,13.26-9.82,39.85,10.57,38.65,5.94-.35,20.8-24.45,22.31-26.61,3.48-4.98,38.97-26.52,9.22-29.65-27.34-2.88-14.01,36.46-42.09,17.62Z"></path><path class="cls-3" d="M530.35,332.95c30.28,1.88,2.45-24.64,2.38-19.07-.15,11.42-41.57-1.62-2.38,19.07Z"></path><path class="cls-3" d="M58.61,497.8c1.58,15.51,12.38,4.75,17.11,6.19-.95-.29-11.23-28.94-17.11-6.19Z"></path><path class="cls-3" d="M511.19,657.37c4.38-6.86-.72-16.4-9.58-17.99-9.34-1.67,3.48,17.28,9.58,17.99Z"></path></g><g><path class="cls-6" d="M517.81,78.21c-32.81,20.25-20.39-36.33-37.03-53.41-2.21-2.26-37.24-13.64-38.47-13.88-19.64-3.86-16.46-16.84-39.37,.58-42-19.12-40.97,14.41-63.44,39.54-4.87,5.45,5.35,19.06-6.22,22.1-14.31,3.76-10.15-15.07-19.52-18.21-14.45-4.83-7.12-25.1-28.64-8.63-7.82,5.98-5.74,32.4-6.72,39.94-4.39,33.53-2.65,77.75,23.17,103.52,4.93-2.13,9.49-4.11,14.66-6.35,45.08,37.76,37.64,65.11-10.19,91.17-27.21,14.82-79.9,58.95-42.93,97.81,30.92,32.49,96.18-24.6,138.06,11.26,28.38,24.31,22.1,74.87,48.3,105.36-16.95,26.63-30.22,1.5-47.96,11.42-24.86,13.91-31.34,21.87-38.33,50.39,18.76,28.8,35.75,14.89,56.59,39.69,32.07,38.16-13.52,7.66-36.68,7.78-22.74,.12-53.24,20.01-51.73,45.6,.72,12.22,37.96,33.97,46.57,38.85,5.81,3.3,15.44-3.92,23.7-.95,2.39,.86,19.68,13.88,26.39,17.06,31.36,14.86,45.64,5.5,79.41,8.57,18.05,1.64,33.15,15.78,51.18,5.31,9.29-5.39,3.38-23.17,12.01-29.93,25.52-19.99,44.14,19.67,19.93-40.61,4.29-3.98,12.6,2.13,14.46-7.29-5.36-5.25-11.08-10.86-16.97-16.63-27.06-2.41-84.98,3.02-109.39,13.57-11.85-12.96-13.18-26.63-31.26-34.69-7.83-27.75,16.89-22.73,26.08-40.67,9.22-18,7.87-39.79,16.48-56.85,18.14-35.98,31.13-16.75,62.69-33.9,26.06-14.16,27.69-30.24,.09-49.98-31.67-22.64-45.58,1.61-76.72,9.41-20.89-22.28-25.9-54.7-48.25-77.62-4.16,.72-17.68,15.77-22.56,11.5-8.26-7.23,46.87-89.14,26.95-120.78,.3-5.06,2.18-8.93,7.09-10.8,6.1,1.54,10.38,5.76,12.84,12.65,29.16-6.8,23.74-24.63,44.04-35.02,28.98-14.84,34.22,5.96,62.1-24.24,50.02-54.18,8.78-72.05-40.41-102.63Zm-54.62,110.08c8.41-39.2,24.08,5.83,19.74,6.29-6.38,.68-20.62,10.26-19.74-6.29Z"></path><path class="cls-6" d="M1056.99,318.61c53.49-13.36,19.67-102.07-22.49-40.15-21.97-5.02-20.2-32.59-34.14-36.44-13.25-3.66-20.07,16.74-17.86,17.57-.36-.14-28.97-9.67-22.64-8.13,10.76,2.61-29.04-41.72-33.66-9.91-1.12,7.73,12.8,18.81,12.5,30.93-.39,16.12-10.67,35.67-25.72,36.81-29.34,2.23-74.98-52.68-83.29-77.18-3.73-1.97-7.26-3.84-11.67-6.17,2.46-4.59,4.54-8.49,6.77-12.65-9.99-26.08-48.79-37.66-65.78-58.65-12.03-14.85-23.5-77.92-52.45-63.81-7.33,3.57-10.85,58.66-7.64,64.77,3.66,6.99,81.46,38.56,44.45,49.73,5.81,7.26-12.67-19.92-16.88-16.16-9.38,8.35,8.15,19.52,13.63,23.2-7.36,20.95,7.36,26.41,7.78,19.9-1.58,24.18,7.33,2.25-10.93,20.26-13.36,13.17-33.13-9.9-23.46,37.06,5.85,28.41,16.99,33.32,41.8,54.05,13.52-11.91,60.79-38.64,78.07-36.93,22.64,2.24,35.65,32.93,45.98,52.88,8.52,16.45,15.88,54.79,30.05,67.62,39.22,35.52,29.52-.68,45.99-11.52,21.12,7.83,55.17,42.05,60.28,64.01,2.19,9.39-7.29,93.67,21.3,50.6,15.35-5.4,31.98-8.68,34.99,16.56,3.58,30-14.46,14.7-28.85,26.54-20.16,16.58-45.15,15.34-3.21,33.72,17.82,7.81,20.24-4.37,39.29-3.5,8.1,.37,66.14,28.98,67.67,20.46-30.28-12.26-2.77-20.77,7-36.77,10.54-17.25-.29-31.64,25.03-41.05,11.75-4.37,9.42,24.61,28.22,15.72,18.29-8.65,8.59-16.59,18.24-28.21,4.43-5.34,27.78,8.98,22.44-9.85-4.52-15.92-25.58-6.7-32.85-7.16-13.02-.81-26.41,13.17-41.56,3.97-15.03-9.13-6.06-21.75-15.14-32.77-27.23-33.04-65.24-13.28-90.73-33.46-28.73-22.74,4.66-35.95,6.17-58.1,2.06-30.08-26.15-46.07-16.68-77.77Z"></path><path class="cls-6" d="M284.66,523.41c17.9-36.53-3.77-29.64-22.13-55.32-10.06-14.07-7.52-43.07-20.86-55.5-27.92-26-76.61-23.3-63.01,25.17-11.7,10.96-57.68,34.15-59.35,50.57-2.01,19.71,19.12,21.3,14.15,43.26,3.13-13.82-25.21,26.44-19.67,20.91-12.41,12.37-36.08,29-43.6,47.56,33.24,26.33,29.85,65.07,78.73,74.84,15.5,3.1,75.93-3.68,73.84,25.82-.71,9.99-26.82-1.52-19.65,17.76,4.46,11.99,20.03,7.87,18.73,6.15-14.95-19.82,66.39,39.83,20.75,21.14,13.12,5.37,4.75,26.01,26.1,3.57-2.97-10.73,.74-24.7-3.17-34.63-4.27-10.83-22.26-5.63-23.32-19.84-1.22-16.26,14.34-35.62,15.8-54.46,31.67-44.18,34.96,11.64,57.11-.64,14.54-8.06-19.01-104.26-30.46-116.36Zm-139.38,41.67c10.66-2.4,19.28,.08,25.87,7.42-.02,15.55-70.8,33.51-25.87-7.42Zm1.58-2.3c-3.18-2.87-3.85-5.81-2.02-8.85,4.84,.6,5.52,3.55,2.02,8.85Z"></path><path class="cls-6" d="M-2.13,1000.76c-4.2-24.37,19.56-18.19,38.59-11.19,32.64,11.99,40.64,35.7,56.19,61.26,5.45,8.97,27.36,52.44,37.84,53.09,8.81,.55,47.08-30.68,50.19-38.98,14.96-39.92-20.05-43.34-39.47-64.25-5.06-5.45-1.99-20.06-7.81-24.67-13.64-10.8-24.24-7.31-36.15-15.25-24.86-16.57-30.85-11.11-14.56-39.58-2.31,4.03,49.3-39.12,45.32-36.68,5.65-11.9-10.36-22.51,.87-35.91,19.38,14.03,14.32,58.53,43.88,39.27,7.66-4.99,21.92-52.66,10.92-60.35-25.94-18.15-16.57,31.53-30.7,32.01-24.56,.83-11.79-59.62-41.5-28.41-16.68-7.63-12.68-36.47-25.75-43.5-8.02-4.31-45.98,4.68-51.76,12.61-15.11,20.73,4.2,17.15-.77,28.45-3.43,7.8-13.56,26.67-19.02,38.61-11.78,25.75,5.54,59.6-8.2,81.85-9.24,14.95-15.53,7.93-29.45,19.22-11.43,9.27-48.69,17.55-18.72,38.81-2.24-1.59,40.82-6.63,40.06-6.4Z"></path><path class="cls-6" d="M283.19,999.94c-4.74,34.38,17,59.24,48.24,79.81,28.31-36.54,53.77,16.16,86.39,13.01,33.35-3.22,64.98-58.96,53.85-88.42-46.52-4.1-65.99-19.64-66.25-64.07-12.15-4.16-49.26,53.98-86.28,38.4-36.76-15.47-17.1-72.33-33.33-82.06-13.29-7.96-56.73,45.88-30.26,70.46,13.54,12.57,71,7.87,27.65,32.87Z"></path><path class="cls-6" d="M519.93,914.88c2.36,13.77-28.24,57.88-22.6,63.47,10.53,2.41,18.34-1.18,23.42-10.75,12.85-3.16,24.33,.12,34.44,9.84,35.4,10.55,20.76,12.43,51.97,.13,7.24-2.85,34.55-19.56,40.99-26.32,20.63-21.69,14.76-11.73-.52-34.89-21.74-32.95-60.61-28.84-95.04-37.74-24.07-6.22-74.47-28.93-91.17,9.46,12.49,27.33,34.17,21.97,58.52,26.81Z"></path><path class="cls-6" d="M527.51,912.69l1.06,.24c-.44,.21-.87,.43-1.31,.64,.08-.3,.17-.59,.25-.89Z"></path><path class="cls-6" d="M768.56,737.14c30.52-27.06,12.84-59.33-25.88-73.65-30.41-11.25-63.64,24.72-80.09,3.23-6.3,.15,25.58,48.01,27.93,56.51,6.15,22.25-9.93,47.88-1.48,67.8,28.09,66.18,97.46-25.21,79.53-53.89Z"></path><path class="cls-6" d="M609.07,54.93c62.42-12.59,8.02,13.53,25.53,13.42,15.92-.09,37.2,7.25,30.98-23.21,8.18-12.07,7.7-22.74,14.63-34.04,7.24-11.8,20-19.96,27.25-33.37,41.41-12.61,11.98-52.35-15.75-34.47-5.08,3.28-10.41,28.37-14.93,33.58-14.84,17.1-17.18-7.8-25.95,.55-9.19,8.76-4.92,27.32-18.46,35.82-5.75,3.61-25.08-3.6-25.56-3-12.81,16.14,2.93,25.81-16.33,44.13-3.31-1.61-6.76-3.29-10.16-4.95-3.6,5.87,21.91,40.63,30.48,41.28,29.73,2.25-1.01-25.65-1.73-35.74Z"></path><path class="cls-6" d="M43.25,198.94c-12.65,40.86-17.63,37.53,18.86,61.3,14.67,9.56,45.21,36.94,62.74,17.27,17.65-19.8-8.24-16.78-10.23-33.22-2.96-24.54,12.26-57.77-20.51-73.5-36.86-17.69-20.07,17.35-50.85,28.15Z"></path><path class="cls-6" d="M290.51,881.18c20.79-14.07,51.51-.56,71.6-24.25,20.21-23.83,11.22-39.25-13.97-56.22-23.86-16.07-49.4-23.93-63.12,9.54-5.72,13.96-.2,60.33,5.49,70.93Z"></path><path class="cls-6" d="M-72.08-34.09c-17.51,9.5-27.43,38.7-37.44,54.83,.49,9.14-.9,17.98-4.17,26.52-6.99,2.72-13.85,2.74-20.58,.07-9.46,5.03-31.31-13.67-33.4,8.56-.98,10.41,35.34,6.7,41.95,16.33,18.02,1.55,47.47-14.12,69.02-14.82,15.06-.49,64.6,5.49,69.45-11.46,.6-2.1-54.43-4.29-62.55-14.08-10.57-12.74-12.24-48.84-22.28-65.94Z"></path><path class="cls-6" d="M330.19,666.98c-20.47,14.96,14.47,17.23,12.84,7.96-2.99-5.62-7.27-8.27-12.84-7.96Z"></path><path class="cls-6" d="M25.53,49.07c-4.64,3.92-4.3,6.68,1,8.28,4.83-2.86,4.5-5.62-1-8.28Z"></path><path class="cls-6" d="M471.87,348.2c4.26,3.33,6.75,2.82,7.47-1.54-2.85-2.96-5.34-2.45-7.47,1.54Z"></path></g><g><path class="cls-5" d="M129.01,1045.2c-8.29-16.01-16.94-84.65-38.78-89.43-29.79-6.52-51.97,70.33-60.51,89.43h99.29Z"></path><path class="cls-5" d="M513.77,1045.2c4.35-73.93-112.72-66.22-83.78,0h37.24c4.55-7.67,5.87-7.67,12.41,0h34.13Z"></path><path class="cls-5" d="M594.44,1045.2c-1.67-18.08-1.55-70.21-33.43-60.07-8.95,2.85-19.39,46.31-25.52,60.07h58.96Z"></path><path class="cls-5" d="M323.74,328.42c5.11,115.62,112.98-28.66,142.89-45.46,10.17-5.71,25.67-6.07,36.54-11.97,41.99-22.78-2.67-22.16,32.08-11.4,23.23,7.19,69.6,77.24,21.61,79.93-2.62-1.99-5.76-4.38-8.77-6.68-11.06,9.4,8.7,37.12,3.5,51.88-4.12,11.71-30.4,23.73-39.18,31.17-28.78,24.4-63.07,45.44-40.47,83.86-15.47,10.81-20.57,23.38-33.87,35.12-20.45,18.05-52.01,25.59-70.54,44.17-16.02,16.05-24.35,79.71-58.57,70.94-7.67-21.7-62.31-43.9-25.42-50.09-1.83-8.24-8.18-36.56-21.85-27.96-2.02,6.27-.08,11.4,5.81,15.4-2.27,9.97-7.24,17.32-15.26,22.08-11.52,.03-18.53-13.24-31.12-13.14-4.48,.04,10.52,24.16-1.49,22.4-49.01-7.17,19.69-64.17-44.43-50.41-16.69,3.58-52.52,38.77-62.96,57.78-31.81,57.93,52.72,74.26,45.9,31.74,5.76-5.3,11.47-9.38,18.52-11.89,2.34,4.43-6.18,16.25-7.52,18.84,27.64,16.14,59.58,35.27,83.31,52.87,3.13,2.32,5.24,18.17,10.87,23.3,6.52,5.94,19.76,.92,30.05,16.41-3.98-1.37,42.87-37.25,52.13-39.15,15.91-3.27,49.25,2.4,64.28,9.26,8.6-1.83,14.09-7.25,17.05-15.91-2-4.46-7.81-52.63-7.78-52.72,8.28-23.8,11.58-6.59,40.26-5.65,50.69,1.67,50.6-30.6,48.07-69.36-1.03-15.69-9.81-25.88-4.79-41.48,3.66-11.37,25.77-13.09,28.12-31.08,3.73-28.56-34.64-38.76-16.51-72.12,13.71-25.21,53.85-32.98,75.12-49.74,10.45-8.23,65.81-56.92,66.76-67.04,5.14-54.67-52.14-13.99-65.3-23.2-10.28-7.19,15.85-57.96,27.85-60.73,13.34-3.08,53.28,52.04,65.75,21.49,22.7-55.58-101.09-49.39-36.78-119.96-25.82-23.47-26.18-10.58-52.23,6.28-20.44,13.23-36.23,13.7-57.37,22.14-19.89,7.94-33,25.06-56.59,25.23-20.48,.14-34.08-16.73-52.18-9.27-3.82,1.57-25.53,28.67-31.41,34.47-12.73,12.57-26.65,26.59-38.48,40.1-13.57,15.5-59.96,58-35.65,69.55Zm99.69,303.44"></path><path class="cls-5" d="M1157.45,58.98c-16.41,0-24.68-1.02-16.62-17.85-12.89-29.37-64.08-28.03-86.61-39.66-23.08-11.9-35.45-14.86-49.85-45.66-9.34-19.97-6.3-51.63-22.23-64.69-23.63-19.36-67.53,12.18-97.19-2.59-5.42,4.47-10.95,4.67-16.57,.61-13.31-17.89,21.9-14.15,24.99-19.32,4.74-7.95,7.7-26.77,7.53-40.67h-162.25c-.03,1.24-.07,2.47-.03,3.8,.52,18.34,59.86,10.48,13.01,43.75,1.6,12.68,12.6,9.73,3.13,24.75-14.69,23.31-18.31-14.01-33.37-4.77,3.85-2.36,4.77,50.35,4.12,52.93-5.35,21.25-23.76,40.14-39.95,49.62-1.58,31.39,3.76,56.68,15.29,85.32,18.65,46.32,17.85,59.16,16.03,108.38,16.72-13.64,46.73-12.49,67.33-27.39,32.82-23.73,34.49-30.33,37.97-65.4,5.15-52-4.83-97.68,7.91-151.14,30.15,0,78.9-.18,91.64,32.73,5.31,13.71-20.09,29.57-7.5,46.49,11.38,15.3,18.41,2.92,33.6,7.12,26.17,7.25,20.47-2.95,42.97,17.42,7.68,6.95,5.22,23.01,19.37,30.45,23.06,12.11,57.61-27.63,64.46-5.29h-8.31c-15.37,13.95,4.62,33.05,21.76,23.76,4.72,20.12,18.58,36.97,32.4,51.63-17.95,34.62-47.19,69.74-5.99,100.21,27.84-15.98,15.99-34.44,30.41-49.97,14.18-15.26,29.26-14.26,41.81-38.7-10.54-25.98,24.13-28.77,20.34-52.44-1.06-6.63-41.21-43.75-49.58-53.44Zm-39.38,150.17c-19.96-.53-5.07-16.61-5.64-20.08-1.49-9.01,35.08,20.87,5.64,20.08Z"></path><path class="cls-5" d="M750.76,630.49c-7.64,7.3,3.36,9.67,2.74,16.19-36,38.04-49.19,52.75-5.52,93.06,18.87,17.42,30.54,21.46,52.06,18.23,19.81-2.97,15.39-33.35,37.32,1.86,12.46,20,10.43,103.53,.39,122.21-10.18,18.95-41.17,33.27-62.27,18.94-12.88-8.74-5.31-25.11-15.95-31.66-17.18,8.06-62.01-29.66-65.51,14.11-1.44,18,52.31,40.06,63.42,52.34,.72,.79-3.56,12.75,3.43,18.61,7.37,6.17,30.07,14.44,40.29,17.25,24.45,6.72,71,20.35,91.3-.56,13.18-13.58,1.98-26.98,10.64-41.71,7.6-12.93,28.03-16.56,34.18-29.73,12.98-27.84-13.62-63-25.37-84.9-9.62-17.94-34.82-57,4.22-61.54,24.29-2.83,16.81,30.1,38.49,35.04,19.26,4.39,25.97-8.14,39-17.45,28.07-20.05,38.95-35.89,27.73-65.54-7.63-20.18-23.47-42.91-35.71-48.75,1.74,.83-46.15-2.55-49.73-1.08-10.83,4.42-11.68,20.24-19.62,26.15-13.89,10.34-51.9,46.49-67.85,44.69-78.46-8.89-11.77-83.19-11.48-119.57,.37-45.53-8.22-42.46-42.62-25.78-6.26,3.04-22.77-5.67-28.13,2.67-12.55,19.54,39.59,43.62,26.85,53.31-8.6,6.55-37.74-5.17-42.3-6.38Zm100.19,272.53c11.18,1.11,15.88,5.17,14.11,12.18-2.99,4.01-16.3-9.23-14.11-12.18Z"></path><path class="cls-5" d="M118.94-117.67c6.33-4.13,17.18-37.43,14.51-53.19h-22.86c-3.05,10.48-3.93,24.59-11.44,24.84-12.01,.41-15.09-13.82-18.58-24.84H-23.46c-4.53,9.21-11.83,23.1-16.18,32.61-11.78,25.75,5.54,59.6-8.2,81.85-9.24,14.95-15.53,7.93-29.45,19.22-11.43,9.28-48.69,17.55-18.72,38.81C-98.26,.04-55.2-4.99-55.96-4.77c-4.2-24.37,19.56-18.19,38.59-11.19C15.28-3.97,23.28,19.74,38.83,45.3c5.45,8.97,27.36,52.44,37.84,53.09,8.81,.55,47.08-30.68,50.19-38.98,14.96-39.92-20.05-43.34-39.47-64.25-5.06-5.45-1.99-20.06-7.81-24.67-13.64-10.8-24.23-7.31-36.15-15.25-24.86-16.57-30.85-11.11-14.56-39.58-2.31,4.03,49.3-39.12,45.32-36.68,5.65-11.9-10.36-22.51,.87-35.91,19.38,14.03,14.32,58.53,43.88,39.27Z"></path><path class="cls-5" d="M147.03,486.3c22.41-3.89,39.99-13.89,54.71-28,20.29,2.35,11.74,49.88,46.59,41.5,20.08-4.83-.8-15.1,8.51-24.67,11.32-11.62,56.76-46.29,53.98-63.76-3.38-21.23-23.54-10.92-38.54-21.19-11.32-7.75-25.82-30.94-35.42-41.4-20.36-22.17-27.16-10.77-20.89-40.99,1.98-9.55,22.47-33.22,29.04-42.12,17.62-23.84,50.67-54.78-4.17-55.43-42.04-.5-14.63,36.9-44.15,65.75-12.82,12.53-34.74,7.49-46.61,18.27-23.51,21.33,4.79,37.86-1.42,57.18-4.69,14.58-33.65,19.8-25.28,41.82,6.44,16.95,21.99,5.56,30.69,15.45-13.73,25.53-2.38,24.7-21.8,50.92-3.55,4.79-21.76,8.77-22.27,14.85-1.99,23.62,24.97,36.64,37.04,11.82Zm51.71-41.62c2.62-7.78,5.37-9,8.25-3.67,1.44,7.73-5.14,6.27-8.25,3.67Z"></path><path class="cls-5" d="M-8.71,229.22c1.91,42.06-48.1,43.82-71.99,21.57-20.14-18.76-15.39-69.63-36.23-83.47-6.47-4.3-74.64,7.04-76.3,13.15,2.62-9.67,27.05,75.13,21.53,69.24,16.99,18.13,26.05-6.71,44.15-2.63,28.27,6.38,6.96,6.34,24.06,24.99,23.3,25.4,50.52,95.69,85.21,105.65,44.57,12.79,27.87-34.48,31.53-52.32,4.98-24.23,25.3-32.76,24.62-58.58-.12-4.41-35.2-44.39-14.03-43.53,14.23,.58,35.02,35.42,63.98,31.05,15.08-2.28,41.1-12.13,33.87-33.33-6.08-17.82-22.53-10.74-33.18-19.94-17.18-14.83-24.09-47.22-55.56-29.55-26.6,14.94-8.75,49.46-41.66,57.7Z"></path><path class="cls-5" d="M229.37-5.59c-4.74,34.38,17,59.24,48.24,79.81,28.31-36.54,53.77,16.16,86.39,13.01,33.35-3.22,64.98-58.96,53.85-88.42-46.52-4.1-65.99-19.64-66.25-64.07-12.15-4.16-49.26,53.98-86.28,38.4-36.76-15.47-17.1-72.33-33.33-82.06-13.29-7.96-56.73,45.88-30.26,70.46,13.54,12.57,71,7.87,27.65,32.87Z"></path><path class="cls-5" d="M-158.96,591.75c0,37.62-41.27,96.89,26.24,84.93,58.85-10.43,49.05-69.28,79.11-102.22-10.54-41.06,63.47-10.66,63.86-45.14,.64-56.27-76.73,22.29-78.15,22.71-17.04,5.04-16.02-25.01-38.21-21-22.43,4.05-12.28,27.01-21.19,32.16-13.25,7.65-75.35,3.86-31.66,28.56Z"></path><path class="cls-5" d="M-8.85,811.86c-51.79,17.7-63.5,16.11-14.71,46.61,46.37,28.99,62.64,23.97,96.36-21.4,13.55-18.24,28.78-39.34,27.32-63.58-1.38-22.97-18.63-56.49-46.63-48.25-15.79,4.64-22.53,34.33-30.98,46.15-3.96,5.54-16.03,.54-19.02,5.16-6.92,10.7-5.54,24.57-12.34,35.31Zm12.32,41.38c-6-6.42,.85-14.99,7.43-8.17,1.05,4.43-1.42,7.15-7.43,8.17Z"></path><path class="cls-5" d="M296.72,835.65c-24.13-5.42-89.56,47.43-87.45,73.45,2.66,32.72,57.94,70.49,88.45,48.36,3.51-2.54,42.85-40.99,42.97-43.32,.95-18.42-17.07-4.75-21.49-18.72,.52,1.63,19.54-130.87-8.81-113.69-6.97,4.23-14.5,46.29-13.67,53.92Z"></path><path class="cls-5" d="M519.32,725c-13.23,7.63-14.94,22.07-22.01,34.05,14.63,20.02,31.91,13.82,50.25,4.52,16.85,13.53,48.57,2.31,68.05,2.31-4.86-22.64-29.42-22.47-38.13-40.71-8.64-18.09,24.31-36.59-2.95-55.05-12.17-8.24-51.68,6.86-58.03,17.12-9.62,15.53,1.76,19.38,2.82,37.77Z"></path><path class="cls-5" d="M538,973.85c14.43,1.3,30.39,6.28,39.56-6.73,28.89,19.07,19.69,6.92,32.23-8.31,3.27-3.98,18.26-44.61,14.09-50.59-18.9-27.11-85.33,39.51-85.88,65.63Z"></path><path class="cls-5" d="M96.25,865.89c3.7,13.58,8.66,24.35,10.64,38.66,1.41,10.14-15.56,21.62-10.88,28.5-1.5-2.2,35.09,3.58,38.94,4.61,19.7,5.29,33.98,30.75,41.39,2.32,5.5-21.14-54.97-96.48-80.09-74.1Z"></path><path class="cls-5" d="M333.18,174.23c-30.93-3.27-35.7,58.86-2.19,64.71,40,6.99,46.2-64.71,2.19-64.71Z"></path><path class="cls-5" d="M642.95,791.74c-8.56,12.09-3.95,24.46-4.01,36.03,3.7,4.74,8.29-1.56,12.98,3.33,3.6,29.22,17.77,20.8,43.04,12.78,6.68-24.67-30.74-45.24-52.01-52.14Z"></path><path class="cls-5" d="M481.85,769.52c-8.98,3.92-32.59,42.75-5.3,42.42,23.63-.28,38.24-42.13,5.3-42.42Z"></path><path class="cls-5" d="M59.92,540.04c32.82,.86,18.03-23.09,14.87-20.16-4.41,4.09-30.44,11.31-14.87,20.16Z"></path><path class="cls-5" d="M92.95,418.24c-22.4,8.88,7.47,28.91,14.75,12.04-1.59-7.58-6.51-11.59-14.75-12.04Z"></path><path class="cls-5" d="M692.16,534.49c-21.23,1.18,1.04,24.27,1.03,20.89-.02-3.62,17.64-18.4-1.03-20.89Z"></path><path class="cls-5" d="M85.35,846.6c-.28,.07,23.64-12.99,14.45-17.64-9.64-4.88-14.94,11.69-14.45,17.64Z"></path><path class="cls-5" d="M734.84,1010.82c-8.8,1.44-12.75,5.68-11.85,12.72,6.99,1.47,10.94-2.77,11.85-12.72Z"></path><path class="cls-5" d="M488.91,750.3c-.55-.38-13.58-6.48-10.58,2.13,3.53,5.48,7.06,4.77,10.58-2.13Z"></path><path class="cls-5" d="M133.58,251.88c.43-.82,.87-1.64,1.3-2.46-1.12-.37-2.23-.73-3.35-1.1-1.28,2.2-.59,3.39,2.05,3.56Z"></path></g></g></g></svg>