<svg xmlns="http://www.w3.org/2000/svg" xmlns:xlink="http://www.w3.org/1999/xlink" id="Layer_1" viewBox="0 0 143 75"><defs><linearGradient id="linear-gradient" x1="3.01" y1="58.94" x2="19.37" y2="58.94" gradientUnits="userSpaceOnUse"><stop offset="0" stop-color="#e4b63c"></stop><stop offset=".34" stop-color="#e1c56c"></stop><stop offset=".69" stop-color="#e4b63c"></stop><stop offset="1" stop-color="#e9d67d"></stop></linearGradient><linearGradient id="linear-gradient-2" x1="17.44" y1="61.58" x2="23.31" y2="61.58" xlink:href="#linear-gradient"></linearGradient><linearGradient id="linear-gradient-3" x1="20.35" y1="63.38" x2="28.37" y2="63.38" xlink:href="#linear-gradient"></linearGradient><linearGradient id="linear-gradient-4" x1="27.36" y1="61.5" x2="34.01" y2="61.5" xlink:href="#linear-gradient"></linearGradient><linearGradient id="linear-gradient-5" x1="33.15" y1="59.2" x2="38.91" y2="59.2" xlink:href="#linear-gradient"></linearGradient><linearGradient id="linear-gradient-6" x1="41.22" y1="58.45" x2="54.12" y2="58.45" xlink:href="#linear-gradient"></linearGradient><linearGradient id="linear-gradient-7" x1="51.71" y1="61.58" x2="56.79" y2="61.58" xlink:href="#linear-gradient"></linearGradient><linearGradient id="linear-gradient-8" x1="50.53" y1="61.78" x2="61.4" y2="61.78" xlink:href="#linear-gradient"></linearGradient><linearGradient id="linear-gradient-9" x1="58.92" y1="61.58" x2="63.99" y2="61.58" xlink:href="#linear-gradient"></linearGradient><linearGradient id="linear-gradient-10" x1="62.07" y1="61.58" x2="69.09" y2="61.58" xlink:href="#linear-gradient"></linearGradient><linearGradient id="linear-gradient-11" x1="68.09" y1="61.58" x2="74.23" y2="61.58" xlink:href="#linear-gradient"></linearGradient><linearGradient id="linear-gradient-12" x1="73.23" y1="61.58" x2="78.3" y2="61.58" xlink:href="#linear-gradient"></linearGradient><linearGradient id="linear-gradient-13" x1="80.85" y1="58.65" x2="99.58" y2="58.65" xlink:href="#linear-gradient"></linearGradient><linearGradient id="linear-gradient-14" x1="93.23" y1="61.58" x2="98.31" y2="61.58" xlink:href="#linear-gradient"></linearGradient><linearGradient id="linear-gradient-15" x1="97.3" y1="61.58" x2="103.45" y2="61.58" xlink:href="#linear-gradient"></linearGradient><linearGradient id="linear-gradient-16" x1="101.55" y1="59.42" x2="108.31" y2="59.42" xlink:href="#linear-gradient"></linearGradient><linearGradient id="linear-gradient-17" x1="106.06" y1="61.58" x2="113.08" y2="61.58" xlink:href="#linear-gradient"></linearGradient><linearGradient id="linear-gradient-18" x1="112.1" y1="61.58" x2="117.97" y2="61.58" xlink:href="#linear-gradient"></linearGradient><linearGradient id="linear-gradient-19" x1="117.11" y1="59.2" x2="122.87" y2="59.2" xlink:href="#linear-gradient"></linearGradient><linearGradient id="linear-gradient-20" x1="120.09" y1="61.58" x2="125.95" y2="61.58" xlink:href="#linear-gradient"></linearGradient><linearGradient id="linear-gradient-21" x1="123.16" y1="63.52" x2="130.54" y2="63.52" xlink:href="#linear-gradient"></linearGradient><linearGradient id="linear-gradient-22" x1="129.33" y1="60.59" x2="133.65" y2="60.59" xlink:href="#linear-gradient"></linearGradient><linearGradient id="linear-gradient-23" x1="132.64" y1="61.58" x2="137.72" y2="61.58" xlink:href="#linear-gradient"></linearGradient><linearGradient id="linear-gradient-24" x1="135.58" y1="61.28" x2="140.99" y2="61.28" xlink:href="#linear-gradient"></linearGradient><linearGradient id="linear-gradient-25" x1="7.17" y1="48.13" x2="44.48" y2="47.7" xlink:href="#linear-gradient"></linearGradient><linearGradient id="linear-gradient-26" x1="6.17" y1="73.67" x2="43.48" y2="73.24" xlink:href="#linear-gradient"></linearGradient><linearGradient id="linear-gradient-27" x1="45.18" y1="12.38" x2="69.36" y2="23.72" xlink:href="#linear-gradient"></linearGradient><linearGradient id="linear-gradient-28" x1="61.51" y1="25.56" x2="67.66" y2="25.56" xlink:href="#linear-gradient"></linearGradient><linearGradient id="linear-gradient-29" x1="24.39" y1="36.21" x2="42.25" y2="36.21" xlink:href="#linear-gradient"></linearGradient><linearGradient id="linear-gradient-30" x1="11.35" y1="35.45" x2="26.05" y2="36.35" xlink:href="#linear-gradient"></linearGradient><linearGradient id="linear-gradient-31" x1="4.94" y1="30.94" x2="19.06" y2="32.74" xlink:href="#linear-gradient"></linearGradient><linearGradient id="linear-gradient-32" x1="4.87" y1="40.52" x2="32.94" y2="41.57" xlink:href="#linear-gradient"></linearGradient><linearGradient id="linear-gradient-33" x1="37.3" y1="45.64" x2="47.05" y2="45.64" xlink:href="#linear-gradient"></linearGradient><linearGradient id="linear-gradient-34" x1="93.9" y1="40.61" x2="107.09" y2="31.81" xlink:href="#linear-gradient"></linearGradient><linearGradient id="linear-gradient-35" x1="109.86" y1="35.85" x2="126.98" y2="35.85" xlink:href="#linear-gradient"></linearGradient><linearGradient id="linear-gradient-36" x1="91.91" y1="32.97" x2="136.63" y2="32.97" xlink:href="#linear-gradient"></linearGradient><linearGradient id="linear-gradient-37" x1="95.04" y1="41.41" x2="129.44" y2="41.41" xlink:href="#linear-gradient"></linearGradient><linearGradient id="linear-gradient-38" x1="91.66" y1="49.11" x2="95.91" y2="46.84" xlink:href="#linear-gradient"></linearGradient><linearGradient id="linear-gradient-39" x1="-11140.66" y1="16.05" x2="-11093.33" y2="16.05" gradientTransform="translate(-11045.33) rotate(-180) scale(1 -1)" xlink:href="#linear-gradient"></linearGradient></defs><g><path d="M19.34,54.7c-.6-.26-1.23-.36-1.79-.36-1.23,0-2.04,.49-2.04,.49,0,.07,1.4,.76,1.4,2.07,0,1.39-1.18,2.34-3.21,2.62,.77,.77,.89,.98,.89,1.72v1.22c0,.7,.49,1.15,1.11,1.15,.69,0,1.25-.56,1.25-1.19,0-.29-.13-.72-.48-1.31l.11-.08s.53,.7,.53,1.39c0,.78-.64,1.38-1.68,1.38s-2.01-.73-2.01-1.66c0-.69,.11-1.27,.11-1.76,0-.34-.19-.64-.58-.9,0,0-.61,1.34-.81,1.81-.6,1.43-2.97,2.5-5.11,2.5-2.28,0-4.01-1.47-4.01-3.8,0-2.54,2.23-4.82,4.68-4.82,.72,0,1.43,.24,1.43,.24,0,0,.95-1.34,3.55-1.34,1.66,0,2.58,.64,2.58,.64,.04,0,.85-.49,2.3-.49,.72,0,1.07,.08,1.81,.4l-.03,.08Zm-6.68-.52c-2.46,0-3.43,1.28-3.43,1.28,.58,.36,1.18,.68,1.64,1.58,.56,1.07,.34,1.92,.34,1.92,.19-.15,.46-.48,.5-.74l.07,.19c-.05,.23-.32,.58-.6,.74-.41,2.07-1.93,3.5-3.8,3.5-1.43,0-2.54-.53-3.27-2.41,0,0-.08,.11,.19,.11,.57,1.31,1.42,2.19,3.09,2.19,1.81,0,3.21-1.38,3.64-3.32-.12,.05-2.64,1.06-2.64-1.92,0-.85,.45-1.56,.61-1.75,0,0-.7-.26-1.32-.26-2.36,0-4.56,2.28-4.56,4.73,0,2.04,1.34,3.62,3.89,3.62,1.63,0,2.95-.83,3.72-2.44,.25-.54,.89-2.09,1.44-3.34,.9-2.01,2.85-3.01,2.85-3.01,0,0-.76-.65-2.37-.65Zm-1.92,2.91c-.34-.65-.83-1.1-1.62-1.48-.3,.46-.58,.93-.58,1.67,0,2.8,2.33,1.83,2.49,1.76,0,0,.28-.85-.29-1.95Zm4.5-2.15s-.89,.44-1.63,2.19c-.32,.76-.53,1.71-.62,2.13,1.48,.2,2.95-1.02,2.95-2.57,0-1.35-.7-1.75-.7-1.75Z" style="fill:url(#linear-gradient);"></path><path d="M21.68,61.8c-.24,.09-.4,.16-.6,.2-.32,.53-1.38,1.67-2.62,1.67-.62,0-1.02-.64-1.02-1.23,0-1.51,1.54-2.94,3.01-2.94,.61,0,1.07,.53,1.07,1.25,0,.46-.23,.82-.32,1.06,.13-.03,.25-.08,.4-.15,.72-.33,1.26-.83,1.6-1.17l.11,.09c-.32,.38-.94,.83-1.63,1.22Zm-1.27-2.15c-.79,0-2.2,2.48-2.2,3.39,0,.3,.07,.45,.25,.45,.49,0,.95-.45,1.64-1.6-.53-.17-.73-.4-.73-.65,0-.28,.2-.42,.41-.42,.16,0,.28,.08,.28,.28,0,.24-.36,.26-.36,.26,.07,.2,.36,.37,.5,.4,.41-.87,.52-1.31,.52-1.78,0-.21-.11-.33-.32-.33Z" style="fill:url(#linear-gradient-2);"></path><path d="M26.62,62.25c-.77,.72-1.1,1.15-2.16,1.74-.72,1.23-1.43,3.44-3.03,3.44-.6,0-1.07-.42-1.07-1.02,0-1.18,1.68-1.81,3.17-2.28l.56-1.13c-.56,.42-1.01,.66-1.31,.66-.42,0-.7-.34-.7-.9,0-.13,.07-.53,.23-.82l1.09-2.01c.08-.16,.25-.32,.37-.32,.26,0,.33,.11,.52,.11,.12,0,.32-.33,.48-.38l-1.62,3.02c-.21,.4-.23,.46-.23,.65,0,.2,.05,.37,.2,.37,.16,0,.99-.32,1.35-.95l1.39-2.49c.08-.15,.17-.32,.37-.32,.28,0,.28,.11,.48,.11,.11,0,.33-.33,.49-.38-.25,.45-1.22,2.54-2.6,4.45,.93-.57,1.28-1.06,1.93-1.66l1.75-1.64,.11,.09-1.75,1.67Zm-6.16,4.15c0,.33,.24,.56,.56,.56,.62,0,1.09-.45,2.46-2.69-1.44,.49-3.02,1.07-3.02,2.13Z" style="fill:url(#linear-gradient-3);"></path><path d="M30.52,63.67c-.58,0-.79-.32-1.01-.78-.46,.62-.86,.78-1.26,.78-.52,0-.9-.44-.9-1.31,0-1.19,1.23-2.86,2.97-2.86,.28,0,.48,.04,.68,.32,0,0,.15-.2,.28-.2,.16,0,.4,.08,.56,.08,.11,0,.29-.3,.44-.36l-1.74,3.26c-.19,.34-.23,.46-.23,.61,0,.13,.09,.26,.29,.26,.49,0,2.15-1.59,3.3-2.98l.11,.09c-1.4,1.72-2.82,3.09-3.48,3.09Zm0-3.93c-1.15,0-2.38,2.56-2.38,3.3,0,.28,.04,.44,.26,.44,.49,0,.83-.52,1.05-.87,.54-.93,1.35-2.33,1.35-2.54,0-.15-.09-.32-.28-.32Z" style="fill:url(#linear-gradient-4);"></path><path d="M35.07,60.09c-.3,.68-1.05,2.05-1.05,2.98,0,.16,.12,.32,.28,.32,.72,0,1.92-1.39,2.7-2.9l.11,.09c-1.01,1.81-1.92,3.01-3.17,3.09-.48,.03-.79-.42-.79-1.11,0-2.23,4.16-7.83,5.35-7.83,.21,0,.41,.24,.41,.48-.01,.78-1.17,3.32-3.84,4.89Zm3.09-5.09c-.44,0-2.21,3.07-2.81,4.65,1.66-.97,2.99-3.71,2.99-4.37,0-.15-.08-.28-.19-.28Z" style="fill:url(#linear-gradient-5);"></path><path d="M47.29,63.84c-.7,0-1.5-.34-1.95-.66,0,0-.83,.65-1.95,.65-1.01,0-1.71-.46-1.71-1.21,0-.52,.46-.97,1.26-.97,.94,0,1.81,.69,2.09,.87,.49-.33,.78-1.87,1.6-3.48,1.22-2.41,2.41-3.59,3.7-4.08-.74-1.06-2.11-1.74-3.82-1.74-3.23,0-4.41,2.34-4.29,3.96,.15-.13,.97-.99,2.08-.99,1.4,0,2.41,.86,2.41,1.97s-1.06,1.78-1.93,1.78c-2.19,0-2.66-2.36-2.66-2.36,0,0-.74,.85-.74,2.08,0,.49,.11,.77,.38,1.48l-.12,.08c-.19-.38-.42-.97-.42-1.56,0-1.31,.76-2.13,.86-2.3-.19-1.96,1.15-4.29,4.44-4.29,1.63,0,3.13,.61,4.08,1.8,.48-.15,.98-.21,1.48-.21,.93,0,1.68,.32,2.04,.69l-.05,.11c-.83-.56-1.11-.64-1.99-.64-.52,0-.98,.08-1.36,.21,.58,.82,.94,1.88,.94,3.21,0,2.56-2.08,5.6-4.37,5.6Zm-4.54-2.01c-.5,0-.83,.34-.83,.79,0,.56,.52,.98,1.17,.98,.79,0,1.75-.9,1.75-.9,0,0-.79-.85-2.08-.87Zm1.56-5.47c-1.11,0-2.05,1.06-2.05,1.06,0,0,.38,2.37,2.53,2.37,.79,0,1.78-.66,1.78-1.62,0-1.17-1.17-1.81-2.25-1.81Zm3.26,3.8c-.78,1.97-1.42,2.34-2,2.82,.23,.13,.68,.46,1.07,.46,2.3,0,4.33-3.47,4.33-6.28,0-.74-.17-1.44-.53-2.03-1.92,.86-2.2,3.31-2.87,5.02Z" style="fill:url(#linear-gradient-6);"></path><path d="M52.88,63.67c-.74,0-1.17-.58-1.17-1.19,0-1.84,2.04-2.98,3.03-2.98,.41,0,.76,.32,.76,.73,0,1.3-2.29,1.81-2.74,1.81-.15,.32-.24,.48-.24,.93,0,.28,.09,.49,.36,.49,1.32,0,3.32-2.17,3.8-2.97l.11,.09c-.4,.66-2.42,3.09-3.91,3.09Zm1.68-4c-.38,0-.99,.72-1.67,2.05,.74,0,1.95-1.26,1.95-1.75,0-.2-.09-.3-.28-.3Z" style="fill:url(#linear-gradient-7);"></path><path d="M58.1,59.97h.73l-.13,.24h-.94c-2.34,4.42-3.66,7.87-5.91,7.87-.76,0-1.31-.52-1.31-1.19s.6-1.39,1.26-1.39c.33,0,.65,.32,.65,.68s-.33,.62-.73,.62c-.16,0-.28-.07-.44-.34,.28-.04,.41-.12,.41-.21,0-.19-.12-.34-.28-.34-.24,0-.69,.56-.69,1.11,0,.52,.53,.93,1.13,.93,1.7,0,2.53-3.47,4.87-7.72h-.79l.13-.24h.81c.65-1.11,2.76-4.49,4.01-4.49,.25,0,.52,.25,.52,.49,0,1.01-1.31,2.97-3.3,4Zm2.56-4.28c-.48,0-2.34,3.34-2.76,4.28,2.28-1.68,2.98-3.27,2.98-3.89,0-.24-.08-.38-.23-.38Z" style="fill:url(#linear-gradient-8);"></path><path d="M60.09,63.67c-.74,0-1.17-.58-1.17-1.19,0-1.84,2.04-2.98,3.03-2.98,.41,0,.76,.32,.76,.73,0,1.3-2.29,1.81-2.74,1.81-.15,.32-.24,.48-.24,.93,0,.28,.09,.49,.36,.49,1.32,0,3.32-2.17,3.8-2.97l.11,.09c-.4,.66-2.42,3.09-3.91,3.09Zm1.68-4c-.38,0-.99,.72-1.67,2.05,.74,0,1.95-1.26,1.95-1.75,0-.2-.09-.3-.28-.3Z" style="fill:url(#linear-gradient-9);"></path><path d="M67.05,62.87c-.38,.44-.77,.81-1.34,.81-.5,0-.73-.36-.77-.81-.01-.2-.01-.37,.28-.81l1.1-1.68c.12-.19,.19-.33,.19-.4,0-.08-.05-.12-.2-.12-.37,0-1.34,.66-2.3,2.29-.42,.7-.65,1.39-.95,1.39-.17,0-.34-.12-.49-.12-.12,0-.49,.4-.49,.4l2.04-3.89c.11-.2,.19-.32,.4-.32,.24,0,.28,.11,.46,.11,.12,0,.28-.29,.49-.38l-.68,1.27c.87-.77,1.4-1.11,1.99-1.11,.37,0,.61,.24,.61,.61,0,.24-.07,.42-.25,.72l-1.23,1.92c-.13,.2-.24,.37-.24,.45,0,.16,.08,.24,.28,.24,.25,0,.66-.32,1.1-.79l1.95-2.15,.11,.09c-.29,.34-2.04,2.29-2.04,2.29Z" style="fill:url(#linear-gradient-10);"></path><path d="M69.42,63.67c-.93,0-1.34-.46-1.34-1.19,0-1.99,1.71-2.98,2.99-2.98,.45,0,.79,.32,.79,.69,0,.4-.38,.78-.79,.78-.32,0-.48-.15-.48-.34,0-.09,.01-.28,.13-.45,.15,.12,.28,.17,.38,.17,.09,0,.41-.21,.41-.44,0-.16-.12-.28-.45-.28-.85,0-2.25,2.46-2.25,3.38,0,.3,.26,.5,.6,.5,1.14,0,3.03-.74,4.7-3.02l.11,.09c-1.51,2.12-3.34,3.09-4.81,3.09Z" style="fill:url(#linear-gradient-11);"></path><path d="M74.39,63.67c-.74,0-1.17-.58-1.17-1.19,0-1.84,2.04-2.98,3.03-2.98,.41,0,.76,.32,.76,.73,0,1.3-2.29,1.81-2.74,1.81-.15,.32-.24,.48-.24,.93,0,.28,.09,.49,.36,.49,1.32,0,3.32-2.17,3.8-2.97l.11,.09c-.4,.66-2.42,3.09-3.91,3.09Zm1.68-4c-.38,0-.99,.72-1.67,2.05,.74,0,1.95-1.26,1.95-1.75,0-.2-.09-.3-.28-.3Z" style="fill:url(#linear-gradient-12);"></path><path d="M99.41,55.67c-.07,.01-.98,.13-1.11,.13-1.38,0-4.13-1.63-6.09-1.63-1.22,0-1.79,.13-2.21,.24,.25,.3,1.43,2.03,1.43,3.58,0,1.23-.82,1.89-.97,2.05-.15,.6-.58,1.92-1.89,3.06l-.11-.08c.65-.72,1.35-1.36,1.75-2.81-.16,.05-.32,.08-.6,.08-1.25,0-2.2-1.13-2.2-2.62,0-.97,.68-1.91,.68-1.91-.66-.2-1.02-.32-1.34-.32-2.54,0-4.5,2.05-4.5,4.6s2.07,4.52,4.5,4.52c1.83,0,3.48-1.19,4.17-3.09,1.31-3.58,1.07-4.58,2.69-5.47,.57-.32,1.43-.48,2.3-.56l-.03,.15c-1.6,.2-2.42,.73-2.66,1.8-.25,1.13-.34,1.79-.68,2.86-.93,3.07-3.25,4.42-5.8,4.42s-4.62-2.05-4.62-4.64,1.84-4.76,4.62-4.76c.44,0,1.01,.19,1.42,.32,0,0,.82-1.14,1.4-1.4,0,0-1.11-1.43-3.31-1.43-3.7,0-5.18,3.78-5.29,5.02h-.12c.12-1.84,1.87-5.15,5.4-5.15,2.34,0,3.52,1.48,3.52,1.48,1.11-.52,1.63-.62,2.42-.62,2.58,0,4.25,2.13,6.31,2.13,.24,0,.58-.04,1.07-.15-.09,.11-.13,.15-.17,.19Zm-11.11,.17c-.23,.25-.72,1.18-.72,1.79,0,1.43,.91,2.5,2.03,2.5,.28,0,.44-.05,.65-.15,.26-2.36-.61-3.43-1.96-4.15Zm1.5-1.36c-.12,.08-.66,.32-1.42,1.22,1.56,.82,2.27,1.83,2.11,4.08,.17-.16,.76-.77,.76-1.79,0-1.56-1.35-3.42-1.44-3.51Z" style="fill:url(#linear-gradient-13);"></path><path d="M94.4,63.67c-.74,0-1.17-.58-1.17-1.19,0-1.84,2.04-2.98,3.03-2.98,.41,0,.76,.32,.76,.73,0,1.3-2.29,1.81-2.74,1.81-.15,.32-.24,.48-.24,.93,0,.28,.09,.49,.36,.49,1.32,0,3.32-2.17,3.8-2.97l.11,.09c-.4,.66-2.42,3.09-3.91,3.09Zm1.68-4c-.38,0-.99,.72-1.67,2.05,.74,0,1.95-1.26,1.95-1.75,0-.2-.09-.3-.28-.3Z" style="fill:url(#linear-gradient-14);"></path><path d="M98.64,63.67c-.93,0-1.34-.46-1.34-1.19,0-1.99,1.71-2.98,2.99-2.98,.45,0,.79,.32,.79,.69,0,.4-.38,.78-.79,.78-.32,0-.48-.15-.48-.34,0-.09,.01-.28,.13-.45,.15,.12,.28,.17,.38,.17,.09,0,.41-.21,.41-.44,0-.16-.12-.28-.45-.28-.85,0-2.25,2.46-2.25,3.38,0,.3,.26,.5,.6,.5,1.14,0,3.03-.74,4.7-3.02l.11,.09c-1.51,2.12-3.34,3.09-4.81,3.09Z" style="fill:url(#linear-gradient-15);"></path><path d="M104.48,59.91l-.26,.58c.7-.66,1.38-.99,1.71-.99s.54,.24,.54,.56c0,.77-1.74,2.86-1.74,3.07,0,.12,.07,.24,.19,.24,.62,0,2.12-1.89,2.95-2.87l.11,.09c-1.06,1.31-2.38,3.09-3.29,3.09-.41,0-.73-.26-.73-.64,0-.62,1.71-2.64,1.71-3.05,0-.05-.04-.13-.11-.13-.44,0-1.11,.6-1.4,1.06-1.02,1.78-1.35,2.65-1.63,2.65-.2,0-.34-.11-.48-.11-.16,0-.25,.21-.5,.36,.65-1.28,1.91-3.76,3.54-6.13,.86-1.23,2.03-2.66,2.74-2.66,.24,0,.48,.15,.48,.4,0,1.93-3.18,4.16-3.83,4.49Zm3.1-4.62c-.52,0-1.7,2.12-2.94,4.27,1.96-1.3,3.07-3.11,3.07-3.93,0-.17-.05-.33-.13-.33Z" style="fill:url(#linear-gradient-16);"></path><path d="M111.04,62.87c-.38,.44-.77,.81-1.34,.81-.5,0-.73-.36-.77-.81-.01-.2-.01-.37,.28-.81l1.1-1.68c.12-.19,.19-.33,.19-.4,0-.08-.05-.12-.2-.12-.37,0-1.34,.66-2.3,2.29-.42,.7-.65,1.39-.95,1.39-.17,0-.34-.12-.49-.12-.12,0-.49,.4-.49,.4l2.04-3.89c.11-.2,.19-.32,.4-.32,.24,0,.28,.11,.46,.11,.12,0,.28-.29,.49-.38l-.68,1.27c.87-.77,1.4-1.11,1.99-1.11,.37,0,.61,.24,.61,.61,0,.24-.07,.42-.25,.72l-1.23,1.92c-.13,.2-.24,.37-.24,.45,0,.16,.08,.24,.28,.24,.25,0,.66-.32,1.1-.79l1.95-2.15,.11,.09c-.29,.34-2.04,2.29-2.04,2.29Z" style="fill:url(#linear-gradient-17);"></path><path d="M116.34,61.8c-.24,.09-.4,.16-.6,.2-.32,.53-1.38,1.67-2.62,1.67-.62,0-1.02-.64-1.02-1.23,0-1.51,1.54-2.94,3.01-2.94,.61,0,1.07,.53,1.07,1.25,0,.46-.23,.82-.32,1.06,.13-.03,.25-.08,.4-.15,.72-.33,1.26-.83,1.6-1.17l.11,.09c-.32,.38-.94,.83-1.63,1.22Zm-1.27-2.15c-.79,0-2.2,2.48-2.2,3.39,0,.3,.07,.45,.25,.45,.49,0,.95-.45,1.64-1.6-.53-.17-.73-.4-.73-.65,0-.28,.2-.42,.41-.42,.16,0,.28,.08,.28,.28,0,.24-.36,.26-.36,.26,.07,.2,.36,.37,.5,.4,.41-.87,.52-1.31,.52-1.78,0-.21-.11-.33-.32-.33Z" style="fill:url(#linear-gradient-18);"></path><path d="M119.03,60.09c-.3,.68-1.05,2.05-1.05,2.98,0,.16,.12,.32,.28,.32,.72,0,1.92-1.39,2.7-2.9l.11,.09c-1.01,1.81-1.92,3.01-3.17,3.09-.48,.03-.79-.42-.79-1.11,0-2.23,4.16-7.83,5.35-7.83,.21,0,.41,.24,.41,.48-.01,.78-1.17,3.32-3.84,4.89Zm3.09-5.09c-.44,0-2.21,3.07-2.81,4.65,1.66-.97,2.99-3.71,2.99-4.37,0-.15-.08-.28-.19-.28Z" style="fill:url(#linear-gradient-19);"></path><path d="M124.32,61.8c-.24,.09-.4,.16-.6,.2-.32,.53-1.38,1.67-2.62,1.67-.62,0-1.02-.64-1.02-1.23,0-1.51,1.54-2.94,3.01-2.94,.61,0,1.07,.53,1.07,1.25,0,.46-.23,.82-.32,1.06,.13-.03,.25-.08,.4-.15,.72-.33,1.26-.83,1.6-1.17l.11,.09c-.32,.38-.94,.83-1.63,1.22Zm-1.27-2.15c-.79,0-2.2,2.48-2.2,3.39,0,.3,.07,.45,.25,.45,.49,0,.95-.45,1.64-1.6-.53-.17-.73-.4-.73-.65,0-.28,.2-.42,.41-.42,.16,0,.28,.08,.28,.28,0,.24-.36,.26-.36,.26,.07,.2,.36,.37,.5,.4,.41-.87,.52-1.31,.52-1.78,0-.21-.11-.33-.32-.33Z" style="fill:url(#linear-gradient-20);"></path><path d="M127.11,63.99c-.53,1.19-1.13,3.72-2.77,3.72-.66,0-1.18-.44-1.18-.99,0-.66,.85-1.78,3.09-2.56l.4-1.05c-.36,.44-.52,.56-.79,.56-.6,0-.95-.44-.95-1.3,0-1.51,1.67-2.87,2.82-2.87,.26,0,.34,.05,.52,.24,0,0,.16-.12,.28-.12,.37,0,.37,.12,.5,.12,.08,0,.24-.24,.48-.4,0,0-.82,1.26-1.27,2.12-.45,.86-1.06,2.29-1.06,2.29,1.19-.77,2.36-1.75,3.27-3.26l.11,.09c-.95,1.71-2.34,2.72-3.43,3.4Zm-3.75,2.69c0,.32,.26,.52,.56,.52,.9,0,1.85-1.63,2.27-2.82-1.06,.3-2.82,1.43-2.82,2.3Zm4.42-6.98c-.79,0-2.11,2.57-2.11,3.42,0,.21,.01,.33,.24,.33,.68,0,2.11-3.03,2.11-3.5,0-.13-.11-.25-.24-.25Z" style="fill:url(#linear-gradient-21);"></path><path d="M130.15,63.67c-.46,0-.82-.28-.82-.79,0-.9,.86-2.13,1.32-2.98,.09-.17,.12-.28,.36-.28,.4,0,.26,.12,.45,.12,.11,0,.34-.36,.5-.4l-1.68,3.21c-.11,.2-.13,.41-.13,.5,0,.19,.11,.34,.32,.34,.5,0,2.76-2.52,3.07-2.9l.11,.09c-1.05,1.25-2.65,3.09-3.5,3.09Zm2.05-4.95c-.28,0-.5-.24-.5-.52,0-.37,.32-.69,.68-.69,.28,0,.48,.21,.48,.45,0,.38-.32,.76-.65,.76Z" style="fill:url(#linear-gradient-22);"></path><path d="M133.81,63.67c-.74,0-1.17-.58-1.17-1.19,0-1.84,2.04-2.98,3.03-2.98,.41,0,.76,.32,.76,.73,0,1.3-2.29,1.81-2.74,1.81-.15,.32-.24,.48-.24,.93,0,.28,.09,.49,.36,.49,1.32,0,3.32-2.17,3.8-2.97l.11,.09c-.4,.66-2.42,3.09-3.91,3.09Zm1.68-4c-.38,0-.99,.72-1.67,2.05,.74,0,1.95-1.26,1.95-1.75,0-.2-.09-.3-.28-.3Z" style="fill:url(#linear-gradient-23);"></path><path d="M138.11,62.97c-.3,.36-.82,.73-1.48,.73s-1.05-.37-1.05-.94c0-.38,.25-.74,.64-.74s.66,.48,.94,.58c.36-.25,.5-.87,.5-1.17s-.25-.76-.25-1.28c0-.56,.21-1.27,.7-1.27,.2,0,.33,.08,.33,.24,0,.4-.24,.72-.41,1.02,0,0,.4,.87,.4,1.44,0,.46-.15,1.06-.24,1.21,.89-.2,1.55-.42,2.69-2.29l.11,.09c-1.23,2.05-2.07,2.27-2.87,2.38Zm-1.8-.72c-.13,0-.24,.12-.24,.26,0,.24,.2,.33,.42,.37,.21,.04,.45-.01,.53-.16-.32-.15-.49-.48-.72-.48Zm1.81-3.26c-.09,0-.24,.25-.25,.56,0,.13,.01,.29,.08,.42,.28-.4,.33-.6,.33-.83,0-.07-.04-.16-.16-.15Z" style="fill:url(#linear-gradient-24);"></path></g><g><path d="M4.01,47.38c5.65-.07,11.3-.12,16.95-.16,5.65-.04,11.3-.07,16.95-.1,11.3-.05,22.61-.07,33.91-.07,11.3,0,22.61,.02,33.91,.07,11.3,.05,22.61,.12,33.91,.26-11.3,.14-22.61,.21-33.91,.26-11.3,.05-22.61,.07-33.91,.07-11.3,0-22.61-.02-33.91-.07-5.65-.03-11.3-.06-16.95-.1-5.65-.05-11.3-.09-16.95-.16Z" style="fill:url(#linear-gradient-25);"></path><path d="M3.01,72.93c5.65-.07,11.3-.12,16.95-.16,5.65-.04,11.3-.07,16.95-.1,11.3-.05,22.61-.07,33.91-.07,11.3,0,22.61,.02,33.91,.07,11.3,.05,22.61,.12,33.91,.26-11.3,.14-22.61,.21-33.91,.26-11.3,.05-22.61,.07-33.91,.07-11.3,0-22.61-.02-33.91-.07-5.65-.03-11.3-.06-16.95-.1-5.65-.05-11.3-.09-16.95-.16Z" style="fill:url(#linear-gradient-26);"></path><path d="M71.55,44.03c-5.22,0-10.12-2.01-13.81-5.65-3.69-3.64-5.72-8.48-5.72-13.64s2.03-9.99,5.72-13.64c3.69-3.64,8.59-5.65,13.81-5.65s10.12,2.01,13.81,5.65c3.69,3.64,5.72,8.48,5.72,13.64s-2.03,9.99-5.72,13.64c-3.69,3.64-8.59,5.65-13.81,5.65Zm0-37.39c-10.11,0-18.34,8.12-18.34,18.11s8.23,18.11,18.34,18.11,18.34-8.12,18.34-18.11-8.23-18.11-18.34-18.11Z" style="fill:url(#linear-gradient-27);"></path><path d="M64.12,34.82V16.05h-3.25v-.77h11.31c1.48,0,2.69,.13,3.64,.38,.95,.25,1.77,.78,2.45,1.57,.69,.79,1.03,1.7,1.03,2.74,0,1.28-.5,2.32-1.51,3.12-1.01,.8-2.71,1.4-5.11,1.8v.08c1.72,.33,3.14,.98,4.24,1.94,1.1,.96,1.65,2.59,1.65,4.88,0,1.31,.16,2.15,.47,2.52,.31,.37,.75,.55,1.3,.55,.36,0,.79-.07,1.29-.21v.74c-.89,.3-1.75,.45-2.58,.45-1.69,0-2.89-.46-3.58-1.39-.7-.93-1.04-1.84-1.02-2.73l.06-2.58c0-.9-.29-1.79-.87-2.66-.58-.87-1.89-1.31-3.95-1.31h-1.92v9.65h3.25v.77h-10.15v-.77h3.25Zm3.66-18.78v8.41h2.77c1.19,0,2.1-.08,2.72-.23,.63-.16,1.13-.57,1.5-1.23,.37-.66,.56-1.71,.56-3.16,0-1.18-.19-2.05-.57-2.59-.38-.55-.84-.88-1.38-1.01-.54-.13-1.24-.19-2.12-.19h-3.49Z" style="fill:url(#linear-gradient-28);"></path><g><g><path d="M27.09,31s.51,1.93,5.35,.91c0,0,4-1.25,4.56-1.25s3.15-.25,5.46,1.55c2.31,1.8,3.49,2.94,4.67,3.11,0,0,2.48,.79,1.46-2.04,0,0,3.26,1.31,3.43,8.51,0,0-2.53-3.74-5.12-5.16,0,0-4.56-3.8-13-2.5,0,0-5.46,1.25-6.81-3.12Z" style="fill:url(#linear-gradient-29);"></path><path d="M18.03,33.04s.62,3.69,6.3,2.89l1.45-.34c1.64-.39,3.31-.6,4.99-.6,1.36,0,2.69,.15,3.07,.66,0,0-4.95,.11-6.47,1.19-1.52,1.08-8.27,3.92-10.19,0,0,0-1.07-2.33,.84-3.8Z" style="fill:url(#linear-gradient-30);"></path><path d="M51.63,42.4s-4.08-9.12-17.3-6.08c-.87,.2-1.73,.46-2.57,.76-2.53,.89-10.44,3.49-14.29,2.55-2.96-.73-6.03-2.18-7.84-4.6-2.06-2.75-1.84-6.65,.55-9.12,.72-.74,1.65-1.36,2.84-1.6,0,0,5.35-.61,5.23,4.26,0,0,.28,3.18-3.21,2.72,0,0-.17-.34-.06-1.36s.17-1.76-.62-2.27c0,0-.7-.46,.56-1.65,0,0-2.12-.15-3,1.56-.33,.65-.39,1.41-.19,2.11,.19,.64,.4,1.58,.15,1.73-.39,.23-.34,.68-.68-.28l-.34-.11s.06,2.44,2.76,2.67c0,0,4.62,.45,5.35-4.31,0,0,.9-5.36-5.44-5.67-.83-.04-1.65,.18-2.34,.62-1.43,.92-3.7,2.89-3.87,6.2-.08,1.67,.43,3.32,1.39,4.69,1.34,1.91,4.12,4.87,8.87,5.73,1.93,.35,3.9,.28,5.81-.15,2.21-.5,6.42-1.53,9.47-2.74,0,0,11.09-5.39,18.74,4.37Z" style="fill:url(#linear-gradient-31);"></path><path d="M48.36,40.3s-4.73-5.69-15.53-1.46c0,0-6.87,3.44-10.24,3.56-3.04,.1-5.17,.16-6.64-.41-.45-.18-.98-.07-1.3,.3-.24,.28-.34,.69,.05,1.25,.36,.51,.93,.83,1.54,.91,1.28,.16,4.01,.35,6.96-.52,0,0,1.97-.28,1.24,1.36,0,0-.47,1.02,.92,.23,0,0,1.22-.74,1.72-1.99s2.19-2.44,3.88-2.44c0,0,1.13,.34,.73,1.7,0,0-.34,2.27,.73,2.27,0,0,3.13-5.03,7.12-6.22,0,0,4.47-1.38,8.81,1.74,0,0,.37,.09,0-.28Z" style="fill:url(#linear-gradient-32);"></path></g><path d="M45.62,41.55s.36-1.08-.83-1.18c-.41-.04-.82,.09-1.1,.39s-.49,.77-.08,1.48c.2,.36,.49,.65,.83,.88,.44,.29,1.15,.74,1.41,.82l-.68,.19,.11,.72s1.83-.64,3.24,1.32c0,0-1.57-1.23-3.31-.34l.17,.83-1.01,1.19h0c-.28,0-.51,.23-.51,.51h0c0,.19,.15,.34,.34,.34h1.01s-.51,2.1,1.13,2.21c0,0-1.27-2.04-.38-3.35l4.55,.11s-.08-.55-.78-1.46c-.65-.85-1.5-1.53-2.45-2.01-1.33-.67-3.66-2.02-3.13-3.05,0,0,.7,.13,.56,.7,0,0,.96,.45,.92-.3Z" style="fill:url(#linear-gradient-33);"></path></g><g><g><path d="M116.68,30.94s-.51,1.91-5.4,.9c0,0-4.03-1.24-4.6-1.24s-3.18-.25-5.51,1.53-3.52,2.91-4.72,3.08c0,0-2.5,.79-1.48-2.03,0,0-3.3,1.29-3.47,8.44,0,0,2.56-3.72,5.17-5.12,0,0,4.6-3.77,13.12-2.48,0,0,5.51,1.24,6.87-3.1Z" style="fill:url(#linear-gradient-34);"></path><path d="M125.83,32.97s-.62,3.66-6.36,2.87l-1.46-.34c-1.65-.39-3.34-.59-5.04-.59-1.37,0-2.72,.14-3.1,.65,0,0,5,.11,6.53,1.18s8.35,3.88,10.28,0c0,0,1.08-2.31-.85-3.77Z" style="fill:url(#linear-gradient-35);"></path><path d="M91.91,42.26s4.12-9.05,17.47-6.04c.88,.2,1.75,.45,2.6,.75,2.55,.89,10.54,3.47,14.42,2.53,2.98-.72,6.09-2.16,7.91-4.56,2.08-2.73,1.85-6.59-.55-9.05-.72-.74-1.66-1.35-2.87-1.59,0,0-5.4-.6-5.28,4.22,0,0-.28,3.15,3.24,2.7,0,0,.17-.34,.06-1.35s-.17-1.75,.62-2.25c0,0,.71-.46-.57-1.63,0,0,2.14-.15,3.03,1.55,.34,.64,.39,1.39,.19,2.09-.19,.63-.41,1.57-.15,1.71,.4,.23,.34,.68,.68-.28l.34-.11s-.06,2.42-2.78,2.65c0,0-4.66,.45-5.4-4.28,0,0-.87-5.06,5.04-5.6,1.15-.1,2.29,.2,3.24,.87,1.43,1,3.34,2.89,3.49,5.87,.08,1.66-.44,3.29-1.41,4.65-1.35,1.9-4.16,4.83-8.96,5.69-1.94,.35-3.94,.28-5.87-.15-2.23-.5-6.48-1.52-9.56-2.71,0,0-11.19-5.35-18.92,4.33Z" style="fill:url(#linear-gradient-36);"></path><path d="M95.2,40.17s4.77-5.65,15.68-1.44c0,0,6.93,3.41,10.34,3.53,3.07,.1,5.22,.16,6.7-.41,.46-.18,.99-.07,1.31,.3,.24,.28,.34,.68-.05,1.24-.36,.51-.93,.83-1.56,.91-1.29,.16-4.05,.34-7.02-.51,0,0-1.99-.28-1.25,1.35,0,0,.47,1.01-.93,.23,0,0-1.23-.73-1.74-1.97s-2.22-2.42-3.92-2.42c0,0-1.14,.34-.74,1.69,0,0,.34,2.25-.74,2.25,0,0-3.16-4.99-7.19-6.17,0,0-4.52-1.37-8.89,1.73,0,0-.37,.09,0-.28Z" style="fill:url(#linear-gradient-37);"></path></g><path d="M97.97,41.64s-.36-1.07,.84-1.17c.41-.04,.82,.09,1.11,.38s.49,.76,.08,1.47c-.2,.35-.5,.65-.84,.87-.44,.29-1.16,.74-1.42,.81l.68,.19-.11,.71s-1.84-.64-3.27,1.31c0,0,1.58-1.22,3.35-.34l-.17,.83,1.02,1.18h0c.28,0,.51,.23,.51,.51h0c0,.19-.15,.34-.34,.34h-1.02s.51,2.08-1.14,2.2c0,0,1.29-2.03,.39-3.32l-4.59,.11s.08-.55,.78-1.45c.66-.84,1.51-1.52,2.47-1.99,1.34-.66,3.7-2.01,3.16-3.03,0,0-.7,.13-.57,.69,0,0-.97,.45-.93-.3Z" style="fill:url(#linear-gradient-38);"></path></g><path d="M48.64,30.09c-.59-2.42-.77-4.89-.54-7.36,.23-2.41,.84-4.76,1.83-6.98,.99-2.23,2.33-4.28,3.99-6.09,1.7-1.86,3.7-3.42,5.93-4.65,3.57-1.96,7.64-3,11.76-3.01h0s.05,0,.05,0c3.36,0,6.61,.67,9.67,1.99,2.51,1.08,4.78,2.56,6.75,4.39,1.91,1.78,3.49,3.85,4.7,6.16,2.43,4.66,3.17,10.04,2.07,15.16l-.08,.37-1.77-.32,.08-.37c2.11-9.81-3.14-19.85-12.5-23.88-2.82-1.21-5.82-1.83-8.92-1.83-3.81,0-7.56,.96-10.86,2.78-8.33,4.58-12.6,14.16-10.37,23.29l-1.76,.37Z" style="fill:url(#linear-gradient-39);"></path></g></svg>